<svg width="55" height="42" fill="none" xmlns="http://www.w3.org/2000/svg"><g clip-path="url('#clip0_95_27')"><path d="M27.5 0S10.3 0 6.01 1.097c-2.367.604-4.228 2.383-4.86 4.64C0 9.832 0 21 0 21s0 11.168 1.15 15.263c.632 2.26 2.495 4.036 4.86 4.64C10.3 42 27.5 42 27.5 42s17.2 0 21.49-1.097c2.365-.604 4.228-2.383 4.86-4.64C55 32.168 55 21 55 21s0-11.168-1.15-15.263c-.632-2.257-2.495-4.036-4.86-4.64C44.7 0 27.5 0 27.5 0Zm0 5.25c7.925 0 17.85.35 20.066.918.465.118.846.481.973.928.662 2.357.961 9.552.961 13.904s-.299 11.544-.961 13.904a1.367 1.367 0 0 1-.973.928c-2.213.567-12.14.918-20.066.918-7.923 0-17.847-.35-20.066-.918a1.367 1.367 0 0 1-.973-.928C5.8 32.547 5.5 25.352 5.5 21s.299-11.547.961-13.91a1.36 1.36 0 0 1 .973-.922C9.647 5.6 19.574 5.25 27.5 5.25ZM22 11.905v18.19L38.5 21 22 11.905Z" fill="#fff"/></g><defs><clipPath id="clip0_95_27"><path fill="#fff" d="M0 0h55v42H0z"/></clipPath></defs></svg>