<svg width="65" height="60" fill="none" xmlns="http://www.w3.org/2000/svg"><path d="M32.5 5C17.574 5 5.417 16.223 5.417 30c0 13.778 12.157 25 27.083 25 14.926 0 27.083-11.222 27.083-25 0-13.777-12.157-25-27.083-25Zm0 5c11.998 0 21.667 8.925 21.667 20 0 10.036-7.948 18.283-18.366 19.746V35.962h6.305l.99-5.913H35.8v-3.233c0-2.457.867-4.638 3.359-4.638h3.999v-5.161c-.704-.088-2.19-.279-4.999-.279-5.866 0-9.305 2.86-9.305 9.375v3.936h-6.03v5.913h6.03v13.735C18.607 48.102 10.833 39.926 10.833 30c0-11.075 9.669-20 21.667-20Z" fill="#fff"/></svg>