<svg width="73" height="64" fill="none" xmlns="http://www.w3.org/2000/svg"><g clip-path="url('#clip0_95_19')" filter="url('#filter0_d_95_19')"><path d="M48.485 6.563c-7.775 0-14.097 5.835-14.097 13.012 0 .431.117.853.162 1.275-9.612-.848-18.113-5.123-23.887-11.663a1.357 1.357 0 0 0-1.122-.454 1.307 1.307 0 0 0-1.031.604c-1.214 1.927-1.91 4.144-1.91 6.526 0 2.882 1.118 5.521 2.844 7.687-.335-.136-.7-.21-1.016-.375a1.39 1.39 0 0 0-1.274.028c-.391.216-.63.605-.635 1.022v.15c0 4.42 2.478 8.26 6.134 10.612-.04-.004-.08.01-.121 0a1.364 1.364 0 0 0-1.199.39c-.3.314-.396.75-.264 1.148 1.452 4.167 5.16 7.35 9.75 8.513a25.832 25.832 0 0 1-12.472 3.187c-.99 0-1.94-.047-2.884-.15-.61-.075-1.193.253-1.397.787-.208.535.02 1.13.544 1.425 5.865 3.474 12.827 5.513 20.312 5.513 12.132 0 21.648-4.678 28.031-11.362 6.384-6.685 9.71-15.366 9.71-23.476 0-.342-.03-.674-.04-1.012 2.38-1.683 4.509-3.656 6.174-5.962.33-.446.295-1.041-.086-1.454-.376-.412-1.01-.539-1.539-.309-.67.277-1.452.305-2.153.525.924-1.14 1.716-2.367 2.194-3.75.162-.473-.015-.994-.437-1.303a1.392 1.392 0 0 0-1.472-.085c-2.22 1.215-4.677 2.068-7.272 2.588-2.52-2.175-5.835-3.637-9.547-3.637Zm0 2.4c3.316 0 6.312 1.307 8.41 3.375.314.3.776.426 1.218.337a28.454 28.454 0 0 0 4.875-1.35 11.29 11.29 0 0 1-3.331 2.813c-.594.267-.874.9-.655 1.476.213.572.863.905 1.508.773 1.3-.145 2.458-.632 3.697-.937a24.168 24.168 0 0 1-3.657 3c-.36.244-.558.637-.528 1.05.02.488.04.97.04 1.462 0 7.5-3.117 15.643-9.058 21.863C45.062 49.045 36.338 53.4 24.922 53.4c-5.184 0-10.08-1.06-14.503-2.925 5.484-.39 10.542-2.18 14.625-5.138.427-.314.594-.839.422-1.317-.173-.478-.65-.806-1.194-.82-4.286-.07-7.876-2.372-9.79-5.625h.203c1.284 0 2.554-.15 3.737-.45.569-.155.96-.642.94-1.19-.02-.55-.442-1.018-1.021-1.135-4.626-.862-8.095-4.34-8.897-8.662 1.31.417 2.65.745 4.103.787.594.033 1.133-.31 1.316-.83.182-.52-.041-1.092-.544-1.383-3.087-1.907-5.119-5.156-5.119-8.85 0-1.368.386-2.624.894-3.825 6.5 6.586 15.6 10.96 25.878 11.438.407.019.803-.136 1.067-.422.264-.29.365-.675.274-1.04a9.928 9.928 0 0 1-.325-2.438c0-5.878 5.129-10.612 11.497-10.612Z" fill="#fff"/></g><defs><clipPath id="clip0_95_19"><path fill="#fff" transform="translate(4)" d="M0 0h65v60H0z"/></clipPath><filter id="filter0_d_95_19" x="0" y="0" width="73" height="68" filterUnits="userSpaceOnUse" color-interpolation-filters="sRGB"><feFlood flood-opacity="0" result="BackgroundImageFix"/><feColorMatrix in="SourceAlpha" values="0 0 0 0 0 0 0 0 0 0 0 0 0 0 0 0 0 0 127 0" result="hardAlpha"/><feOffset dy="4"/><feGaussianBlur stdDeviation="2"/><feComposite in2="hardAlpha" operator="out"/><feColorMatrix values="0 0 0 0 0 0 0 0 0 0 0 0 0 0 0 0 0 0 0.25 0"/><feBlend in2="BackgroundImageFix" result="effect1_dropShadow_95_19"/><feBlend in="SourceGraphic" in2="effect1_dropShadow_95_19" result="shape"/></filter></defs></svg>