<svg width="79" height="79" fill="none" xmlns="http://www.w3.org/2000/svg"><path d="M39.5 6.583C21.36 6.583 6.583 21.36 6.583 39.5S21.36 72.417 39.5 72.417 72.417 57.64 72.417 39.5c0-18.14-14.777-32.916-32.917-32.916Zm0 6.584c14.583 0 26.333 11.75 26.333 26.333 0 13.215-9.66 24.072-22.321 26V47.35h7.663l1.202-7.785h-8.865v-4.257c0-3.235 1.054-6.107 4.082-6.107h4.86v-6.796c-.855-.115-2.661-.366-6.075-.366-7.13 0-11.309 3.766-11.309 12.344v5.181h-7.329v7.786h7.33v18.085c-12.456-2.1-21.904-12.866-21.904-25.935 0-14.582 11.75-26.333 26.333-26.333Z" fill="#fff"/></svg>