<svg width="55" height="55" fill="none" xmlns="http://www.w3.org/2000/svg"><path d="M27.5 4.583C14.87 4.583 4.583 14.872 4.583 27.5c0 12.63 10.287 22.917 22.917 22.917S50.417 40.13 50.417 27.5 40.129 4.584 27.5 4.584Zm0 4.584A18.299 18.299 0 0 1 45.833 27.5c0 9.2-6.725 16.76-15.54 18.1V32.966h5.335l.837-5.42h-6.172v-2.963c0-2.253.734-4.252 2.842-4.252h3.384v-4.731c-.596-.08-1.853-.255-4.23-.255-4.964 0-7.873 2.621-7.873 8.593v3.608h-5.102v5.42h5.102v12.591c-8.672-1.462-15.25-8.957-15.25-18.056A18.299 18.299 0 0 1 27.5 9.167Z" fill="#fff"/></svg>