<svg width="79" height="79" fill="none" xmlns="http://www.w3.org/2000/svg"><g clip-path="url('#clip0_36_128')"><path d="M54.066 8.64c-9.45 0-17.133 7.685-17.133 17.134 0 .568.142 1.123.197 1.678-11.683-1.117-22.015-6.745-29.032-15.355a1.589 1.589 0 0 0-1.364-.599c-.525.037-.994.34-1.253.796a16.998 16.998 0 0 0-2.32 8.592c0 3.795 1.357 7.27 3.455 10.122-.407-.18-.851-.278-1.234-.494a1.575 1.575 0 0 0-1.55.037 1.589 1.589 0 0 0-.77 1.345v.198c0 5.82 3.011 10.875 7.455 13.973-.05-.006-.099.012-.148 0a1.58 1.58 0 0 0-1.457.512 1.586 1.586 0 0 0-.32 1.512c1.765 5.487 6.27 9.678 11.85 11.208-4.444 2.642-9.598 4.197-15.159 4.197a29.67 29.67 0 0 1-3.505-.197A1.576 1.576 0 0 0 .08 64.336a1.576 1.576 0 0 0 .66 1.876c7.13 4.573 15.59 7.258 24.688 7.258 14.745 0 26.311-6.16 34.07-14.96 7.757-8.802 11.8-20.232 11.8-30.91 0-.45-.037-.888-.05-1.333 2.895-2.215 5.48-4.814 7.505-7.85a1.577 1.577 0 0 0-.105-1.913 1.573 1.573 0 0 0-1.87-.408c-.814.364-1.765.401-2.617.692 1.124-1.5 2.087-3.117 2.667-4.938a1.588 1.588 0 0 0-.531-1.716 1.583 1.583 0 0 0-1.79-.11c-2.697 1.598-5.684 2.72-8.838 3.406-3.061-2.864-7.092-4.79-11.603-4.79Zm0 3.16c4.03 0 7.671 1.723 10.22 4.444a1.59 1.59 0 0 0 1.482.445 32.53 32.53 0 0 0 5.925-1.778 14.067 14.067 0 0 1-4.05 3.703 1.578 1.578 0 0 0-.795 1.944 1.577 1.577 0 0 0 1.833 1.019c1.58-.191 2.987-.833 4.493-1.235a30.011 30.011 0 0 1-4.444 3.95c-.438.321-.679.84-.642 1.383.025.642.05 1.278.05 1.926 0 9.875-3.79 20.595-11.011 28.785-7.221 8.19-17.824 13.924-31.699 13.924a42.254 42.254 0 0 1-17.627-3.851c6.666-.513 12.813-2.87 17.775-6.765a1.578 1.578 0 0 0 .513-1.734 1.578 1.578 0 0 0-1.45-1.08c-5.21-.093-9.573-3.123-11.9-7.406h.247c1.561 0 3.104-.198 4.542-.593a1.584 1.584 0 0 0 1.142-1.567 1.586 1.586 0 0 0-1.24-1.494c-5.623-1.136-9.838-5.715-10.814-11.406 1.593.55 3.222.982 4.987 1.037a1.58 1.58 0 0 0 .938-2.913 13.99 13.99 0 0 1-6.22-11.652c0-1.803.468-3.457 1.085-5.037 7.9 8.672 18.96 14.43 31.452 15.06a1.6 1.6 0 0 0 1.296-.556 1.58 1.58 0 0 0 .334-1.37 14.102 14.102 0 0 1-.395-3.21c0-7.739 6.233-13.972 13.973-13.972Z" fill="#fff"/></g><defs><clipPath id="clip0_36_128"><path fill="#fff" d="M0 0h79v79H0z"/></clipPath></defs></svg>