<svg width="79" height="79" fill="none" xmlns="http://www.w3.org/2000/svg"><path d="M26.333 9.875c-9.075 0-16.458 7.383-16.458 16.458v26.334c0 9.075 7.383 16.458 16.458 16.458h26.334c9.075 0 16.458-7.383 16.458-16.458V26.333c0-9.075-7.383-16.458-16.458-16.458H26.333Zm0 6.583h26.334c5.444 0 9.875 4.43 9.875 9.875v26.334c0 5.444-4.43 9.875-9.875 9.875H26.333c-5.444 0-9.875-4.43-9.875-9.875V26.333c0-5.444 4.43-9.875 9.875-9.875Zm29.625 3.292a3.292 3.292 0 1 0 0 6.583 3.292 3.292 0 0 0 0-6.583ZM39.5 23.042c-9.075 0-16.458 7.383-16.458 16.458S30.425 55.958 39.5 55.958 55.958 48.575 55.958 39.5 48.575 23.042 39.5 23.042Zm0 6.583c5.444 0 9.875 4.43 9.875 9.875 0 5.444-4.43 9.875-9.875 9.875-5.444 0-9.875-4.43-9.875-9.875 0-5.444 4.43-9.875 9.875-9.875Z" fill="#fff"/></svg>