<svg width="30" height="30" fill="none" xmlns="http://www.w3.org/2000/svg"><path d="M15 2.002a12.894 12.894 0 0 1 9.144 3.78c5.042 5.043 5.042 13.246 0 18.288A12.847 12.847 0 0 1 15 27.86a12.843 12.843 0 0 1-9.144-3.789c-5.042-5.042-5.042-13.245 0-18.287A12.895 12.895 0 0 1 15 2.002Zm0 23.788a10.79 10.79 0 0 0 7.681-3.182 10.789 10.789 0 0 0 3.181-7.681c0-2.902-1.13-5.629-3.181-7.681-4.236-4.235-11.128-4.235-15.362 0a10.795 10.795 0 0 0-3.181 7.68c0 2.901 1.13 5.63 3.18 7.682A10.788 10.788 0 0 0 15 25.79Z" fill="#fff"/><path d="M17.377 9.138a1.034 1.034 0 0 1 .732 1.765l-4.023 4.024 4.023 4.023a1.033 1.033 0 0 1-.732 1.765 1.034 1.034 0 0 1-.731-.303l-4.755-4.754a1.034 1.034 0 0 1 0-1.463l4.755-4.754a1.03 1.03 0 0 1 .731-.303Z" fill="#fff"/></svg>