<svg width="15" height="15" fill="none" xmlns="http://www.w3.org/2000/svg"><path d="M7.5 14a6.446 6.446 0 0 1-4.572-1.891 6.473 6.473 0 0 1 0-9.144A6.424 6.424 0 0 1 7.5 1.07c1.727 0 3.35.672 4.572 1.894a6.473 6.473 0 0 1 0 9.144 6.449 6.449 0 0 1-4.572 1.89Zm0-11.895c-1.451 0-2.815.565-3.84 1.591a5.394 5.394 0 0 0-1.591 3.84c0 1.452.565 2.815 1.59 3.841a5.439 5.439 0 0 0 7.681 0 5.397 5.397 0 0 0 1.59-3.84c0-1.45-.564-2.815-1.59-3.84A5.394 5.394 0 0 0 7.5 2.104Z" fill="#fff"/><path d="M6.311 10.431a.517.517 0 0 1-.365-.883l2.011-2.011-2.011-2.012a.517.517 0 0 1 .731-.731L9.054 7.17a.517.517 0 0 1 0 .731L6.677 10.28a.515.515 0 0 1-.366.151Z" fill="#fff"/></svg>