<svg width="15" height="15" fill="none" xmlns="http://www.w3.org/2000/svg"><path d="M7.5 1a6.447 6.447 0 0 1 4.572 1.891 6.473 6.473 0 0 1 0 9.144A6.424 6.424 0 0 1 7.5 13.93a6.422 6.422 0 0 1-4.572-1.894 6.473 6.473 0 0 1 0-9.144A6.447 6.447 0 0 1 7.5 1.001Zm0 11.895c1.451 0 2.815-.565 3.84-1.591a5.395 5.395 0 0 0 1.591-3.84c0-1.452-.565-2.815-1.59-3.841a5.439 5.439 0 0 0-7.681 0 5.397 5.397 0 0 0-1.59 3.84c0 1.45.564 2.815 1.59 3.84a5.394 5.394 0 0 0 3.84 1.592Z" fill="#fff"/><path d="M8.689 4.569a.517.517 0 0 1 .365.883L7.043 7.463l2.011 2.012a.517.517 0 0 1-.731.731L5.946 7.83a.517.517 0 0 1 0-.731L8.323 4.72a.516.516 0 0 1 .366-.151Z" fill="#fff"/></svg>