<svg width="37" height="37" fill="none" xmlns="http://www.w3.org/2000/svg"><path d="M18.5 34.531a15.904 15.904 0 0 1-11.277-4.663c-6.219-6.219-6.219-16.336 0-22.555A15.845 15.845 0 0 1 18.5 2.641a15.84 15.84 0 0 1 11.277 4.672c6.219 6.219 6.219 16.336 0 22.555A15.904 15.904 0 0 1 18.5 34.53Zm0-29.338a13.308 13.308 0 0 0-9.473 3.924 13.306 13.306 0 0 0-3.924 9.474c0 3.578 1.394 6.941 3.924 9.473 5.224 5.222 13.724 5.222 18.946 0a13.314 13.314 0 0 0 3.923-9.473c0-3.578-1.393-6.942-3.923-9.474A13.305 13.305 0 0 0 18.5 5.193Z" fill="#fff"/><path d="M15.568 25.73a1.275 1.275 0 0 1-.902-2.178l4.962-4.961-4.962-4.962a1.275 1.275 0 0 1 1.804-1.804l5.864 5.864a1.275 1.275 0 0 1 0 1.804l-5.864 5.864a1.275 1.275 0 0 1-.902.373Z" fill="#fff"/></svg>