<svg width="30" height="30" fill="none" xmlns="http://www.w3.org/2000/svg"><path d="M15 27.998a12.896 12.896 0 0 1-9.144-3.78C.814 19.174.814 10.971 5.856 5.93A12.847 12.847 0 0 1 15 2.14c3.454 0 6.701 1.345 9.144 3.789 5.042 5.042 5.042 13.245 0 18.287A12.894 12.894 0 0 1 15 27.998ZM15 4.21A10.79 10.79 0 0 0 7.32 7.392a10.789 10.789 0 0 0-3.181 7.681c0 2.902 1.13 5.629 3.181 7.681 4.236 4.235 11.128 4.235 15.362 0a10.795 10.795 0 0 0 3.181-7.68c0-2.901-1.13-5.63-3.18-7.682A10.788 10.788 0 0 0 15 4.21Z" fill="#fff"/><path d="M12.623 20.862a1.033 1.033 0 0 1-.732-1.765l4.023-4.024-4.023-4.023a1.033 1.033 0 0 1 .732-1.765 1.034 1.034 0 0 1 .731.303l4.755 4.754a1.034 1.034 0 0 1 0 1.463l-4.755 4.754a1.033 1.033 0 0 1-.731.303Z" fill="#fff"/></svg>