<svg width="33" height="33" fill="none" xmlns="http://www.w3.org/2000/svg"><path d="M16.5 32.531a15.903 15.903 0 0 0 11.277-4.663c6.219-6.219 6.219-16.336 0-22.555A15.845 15.845 0 0 0 16.5.641 15.84 15.84 0 0 0 5.223 5.313c-6.219 6.219-6.219 16.336 0 22.555A15.903 15.903 0 0 0 16.5 32.531Zm0-29.338c3.579 0 6.942 1.393 9.473 3.924a13.306 13.306 0 0 1 3.924 9.474c0 3.578-1.394 6.942-3.924 9.473-5.224 5.222-13.724 5.222-18.946 0a13.314 13.314 0 0 1-3.924-9.473c0-3.578 1.394-6.942 3.924-9.474A13.305 13.305 0 0 1 16.5 3.193Z" fill="#fff"/></svg>