<svg width="49" height="46" fill="none" xmlns="http://www.w3.org/2000/svg"><path d="M13.667.5C6.2.5.125 6.107.125 13v20c0 6.892 6.075 12.5 13.542 12.5h21.666c7.467 0 13.542-5.608 13.542-12.5V13C48.875 6.107 42.8.5 35.333.5H13.667Zm0 5h21.666c4.48 0 8.125 3.365 8.125 7.5v20c0 4.135-3.645 7.5-8.125 7.5H13.667c-4.48 0-8.125-3.365-8.125-7.5V13c0-4.135 3.645-7.5 8.125-7.5ZM38.042 8c-1.496 0-2.709 1.12-2.709 2.5s1.213 2.5 2.709 2.5c1.495 0 2.708-1.12 2.708-2.5S39.537 8 38.042 8ZM24.5 10.5c-7.467 0-13.542 5.608-13.542 12.5S17.033 35.5 24.5 35.5 38.042 29.892 38.042 23 31.967 10.5 24.5 10.5Zm0 5c4.48 0 8.125 3.365 8.125 7.5s-3.645 7.5-8.125 7.5-8.125-3.365-8.125-7.5 3.645-7.5 8.125-7.5Z" fill="#fff"/></svg>