<svg width="79" height="59" fill="none" xmlns="http://www.w3.org/2000/svg"><path d="M39.5 0S14.795 0 8.633 1.526c-3.401.84-6.074 3.313-6.982 6.453C0 13.674 0 29.205 0 29.205s0 15.532 1.651 21.227c.908 3.143 3.585 5.613 6.982 6.453C14.795 58.41 39.5 58.41 39.5 58.41s24.705 0 30.867-1.526c3.397-.84 6.073-3.313 6.982-6.453C79 44.737 79 29.205 79 29.205s0-15.531-1.651-21.226c-.909-3.14-3.585-5.613-6.982-6.453C64.205 0 39.5 0 39.5 0Zm0 7.301c11.384 0 25.639.488 28.823 1.277.667.164 1.214.67 1.396 1.29.952 3.278 1.381 13.285 1.381 19.337 0 6.053-.429 16.056-1.38 19.337-.179.617-.726 1.123-1.397 1.291-3.18.789-17.44 1.276-28.823 1.276-11.38 0-25.635-.487-28.823-1.276-.667-.164-1.214-.67-1.396-1.29C8.329 45.263 7.9 35.257 7.9 29.204c0-6.052.43-16.058 1.381-19.344.178-.613.725-1.119 1.396-1.283C13.857 7.789 28.117 7.3 39.5 7.3Zm-7.9 9.255v25.298l23.7-12.649-23.7-12.649Z" fill="#fff"/></svg>