<svg width="58" height="43" fill="none" xmlns="http://www.w3.org/2000/svg"><path d="M29 0S10.862 0 6.338 1.123c-2.497.618-4.459 2.44-5.126 4.75C0 10.067 0 21.5 0 21.5s0 11.434 1.212 15.626c.667 2.314 2.632 4.133 5.126 4.75C10.862 43 29 43 29 43s18.138 0 22.662-1.123c2.494-.618 4.459-2.44 5.126-4.75C58 32.933 58 21.5 58 21.5s0-11.434-1.212-15.626c-.667-2.312-2.632-4.133-5.126-4.75C47.138 0 29 0 29 0Zm0 5.375c8.358 0 18.824.36 21.161.94.49.12.892.493 1.025.95.7 2.413 1.014 9.78 1.014 14.235 0 4.456-.315 11.82-1.014 14.235-.13.455-.532.827-1.025.95-2.334.581-12.803.94-21.161.94-8.355 0-18.82-.359-21.16-.94-.491-.12-.893-.493-1.026-.95C6.115 33.322 5.8 25.955 5.8 21.5c0-4.456.315-11.822 1.014-14.24.13-.452.532-.824 1.025-.945 2.335-.58 12.803-.94 21.161-.94Zm-5.8 6.813v18.624L40.6 21.5l-17.4-9.312Z" fill="#fff"/></svg>